<svg width="36" height="36" viewBox="0 0 36 36" fill="none" xmlns="http://www.w3.org/2000/svg">
<path fill-rule="evenodd" clip-rule="evenodd" d="M18 0C8.05982 0 0 8.26072 0 18.458C0 26.6143 5.15893 33.525 12.3107 35.9679C13.2107 36.1366 13.5402 35.5661 13.5402 35.0759C13.5402 34.6339 13.5241 33.4768 13.5161 31.9339C8.50982 33.0509 7.44911 29.4589 7.44911 29.4589C6.62946 27.3295 5.44821 26.7589 5.44821 26.7589C3.81696 25.6098 5.56875 25.6339 5.56875 25.6339C7.37679 25.7625 8.325 27.5384 8.325 27.5384C9.93214 30.3589 12.5357 29.5473 13.5643 29.0732C13.725 27.8839 14.1911 27.0643 14.7054 26.6063C10.7116 26.1402 6.50893 24.5571 6.50893 17.4857C6.50893 15.4688 7.20804 13.8214 8.35714 12.5357C8.17232 12.0696 7.55357 10.1893 8.53393 7.65C8.53393 7.65 10.0446 7.15179 13.4839 9.53839C14.9223 9.12857 16.4571 8.92768 17.992 8.91964C19.5187 8.92768 21.0616 9.12857 22.5 9.53839C25.9393 7.15179 27.442 7.65 27.442 7.65C28.4223 10.1893 27.8036 12.0696 27.6188 12.5357C28.7679 13.8295 29.467 15.4768 29.467 17.4857C29.467 24.5732 25.2562 26.1321 21.2464 26.5902C21.8893 27.1607 22.4679 28.2857 22.4679 30.0054C22.4679 32.4723 22.4437 34.4652 22.4437 35.0679C22.4437 35.558 22.7652 36.1366 23.6813 35.9518C30.8491 33.517 36 26.6063 36 18.458C36 8.26072 27.9402 0 18 0Z" fill="white"/>
</svg>
